# xmcd
# 
# Track frame offsets:
#     150
#     4785
#     12362
#     26532
#     45335
#     50312
#     65252
#     89367
#     110852
#     126525
#     131385
#     150125
#     173575
#     188640
#     214685
#     233637
#     255257
# 
# Disc length: 3655
# 
# Revision: 7
# Processed by: cddbd v1.5.2PL0 Copyright (c) Steve Scherf et al.
# Submitted via: fre:ac v1.0.31
# 
DISCID=cb0e4511
DTITLE=Various Artist - AnotherLateNight - Rae and Christian
DYEAR=0
DGENRE=
TTITLE0=Armadozeski Therapy - Heavy Worker
TTITLE1=Boulevard Connection - Copenhagen Claimin' Respect Feat.Raka Iriscience,Maylay Sparks&The Last Emperor
TTITLE2=Joshua - Come On
TTITLE3=Riton - Put That On My Momma
TTITLE4=Dubble D - Introlude
TTITLE5=Nash - 100 Million Ways
TTITLE6=Fumi - Straight No Filter -Only Child Remix
TTITLE7=Zum - Take Ya Time
TTITLE8=Capoeira Twins - Four (4x3) -Mr Scruff Remix
TTITLE9=Bushy vs.Sonic Boo - I Pink I'm Going Sqezy
TTITLE10=Pablo - Roll Call
TTITLE11=H20 - Got To Be Me -Timezone Dub
TTITLE12=Armadozeski Therapy - Strudel Strut Feat.Romanowski and Devious Doze
TTITLE13=Faze Action - Samba -Rae and Christian Remix
TTITLE14=Rae and Christian - Flashlight
TTITLE15=Rick James - Mary Jane moffin you prick
TTITLE16=Jose Filiciano - California Dreamin'
EXTD=
EXTT0=
EXTT1=
EXTT2=
EXTT3=
EXTT4=
EXTT5=
EXTT6=
EXTT7=
EXTT8=
EXTT9=
EXTT10=
EXTT11=
EXTT12=
EXTT13=
EXTT14=
EXTT15=
EXTT16=
PLAYORDER=
